<svg width="90" height="90" viewBox="0 0 90 90" fill="none" xmlns="http://www.w3.org/2000/svg">
<rect width="90" height="90" rx="13" fill="url(#paint0_linear_9_16)"/>
<path d="M23.4513 36.9946H23.9402C25.5699 36.9946 27.0367 36.8153 28.3404 36.4568C29.6442 36.0982 30.7605 35.5441 31.6895 34.7945C32.6184 34.0285 33.3273 33.0426 33.8162 31.8366C34.3214 30.6143 34.574 29.1394 34.574 27.412V20.0539C34.574 18.9131 34.4762 17.9271 34.2807 17.096C34.0851 16.2485 33.7999 15.5478 33.4251 14.9937C33.0502 14.4396 32.6021 14.0321 32.0806 13.7714C31.5591 13.4943 30.9724 13.3558 30.3205 13.3558C29.6686 13.3558 29.0901 13.5432 28.5849 13.9181C28.096 14.2766 27.6722 14.7655 27.3137 15.3848C26.9715 15.9878 26.7107 16.6723 26.5315 17.4382C26.3522 18.1879 26.2626 18.9457 26.2626 19.7116C26.2626 20.5754 26.3522 21.3821 26.5315 22.1317C26.727 22.8651 27.0041 23.5088 27.3626 24.0629C27.7374 24.6007 28.2019 25.0244 28.756 25.3341C29.3264 25.6437 29.9864 25.7986 30.7361 25.7986C31.4857 25.7986 32.1295 25.6682 32.6673 25.4074C33.2214 25.1304 33.6777 24.7718 34.0362 24.3318C34.3947 23.8755 34.6555 23.3866 34.8185 22.8651C34.9977 22.3436 35.0792 21.8302 35.0629 21.325L37.4586 23.2073C37.4586 24.2503 37.2223 25.277 36.7497 26.2875C36.277 27.2979 35.6252 28.2187 34.794 29.0498C33.9629 29.8646 33.0014 30.5165 31.9095 31.0054C30.8339 31.4943 29.6931 31.7388 28.4871 31.7388C26.8737 31.7388 25.4151 31.4536 24.1114 30.8832C22.8239 30.3128 21.7239 29.498 20.8112 28.4387C19.8986 27.3794 19.1978 26.1163 18.7089 24.6496C18.2363 23.1666 18 21.5206 18 19.7116C18 17.9679 18.3015 16.33 18.9045 14.7981C19.5075 13.2662 20.3631 11.9217 21.4713 10.7646C22.5794 9.59122 23.8914 8.67044 25.407 8.00226C26.9226 7.33409 28.5849 7 30.3938 7C32.105 7 33.7103 7.32594 35.2096 7.97782C36.7089 8.6134 38.029 9.55048 39.1698 10.789C40.3105 12.0276 41.2069 13.5514 41.8588 15.3603C42.5106 17.1693 42.8366 19.239 42.8366 21.5695V24.4052C42.8366 26.9312 42.5269 29.2128 41.9077 31.2499C41.2884 33.287 40.4083 35.0797 39.2675 36.6279C38.1268 38.1598 36.7741 39.4473 35.2096 40.4903C33.6614 41.517 31.9421 42.2911 30.0516 42.8126C28.1775 43.3341 26.1892 43.5948 24.0869 43.5948H23.4513V36.9946Z" fill="white"/>
<path d="M72 22.0584V28.5609C72 31.1195 71.6985 33.344 71.0955 35.2345C70.5088 37.1249 69.6614 38.6895 68.5532 39.928C67.4613 41.1666 66.1575 42.0874 64.6419 42.6904C63.1263 43.2933 61.4559 43.5948 59.6306 43.5948C58.1639 43.5948 56.7949 43.4074 55.5238 43.0326C54.2526 42.6415 53.1037 42.0548 52.077 41.2725C51.0665 40.474 50.1947 39.4799 49.4613 38.2902C48.7279 37.1005 48.1657 35.699 47.7746 34.0856C47.3834 32.4559 47.1879 30.6143 47.1879 28.5609V22.0584C47.1879 19.4835 47.4812 17.2589 48.0679 15.3848C48.6709 13.4943 49.5265 11.9298 50.6347 10.6913C51.7429 9.45269 53.0548 8.53191 54.5704 7.92893C56.086 7.32594 57.7565 7.02445 59.5817 7.02445C61.0484 7.02445 62.4092 7.22001 63.6641 7.61114C64.9353 7.98597 66.0842 8.57266 67.1109 9.37121C68.1376 10.1535 69.0095 11.1394 69.7266 12.3291C70.4599 13.5188 71.0222 14.9285 71.4133 16.5582C71.8044 18.1716 72 20.005 72 22.0584ZM63.7619 29.5632V21.0072C63.7619 19.8665 63.6967 18.8723 63.5663 18.0249C63.4522 17.1775 63.273 16.4604 63.0285 15.8737C62.8004 15.287 62.5152 14.8144 62.1729 14.4559C61.8307 14.081 61.4396 13.8121 60.9995 13.6492C60.5758 13.4699 60.1032 13.3803 59.5817 13.3803C58.9298 13.3803 58.3431 13.5188 57.8216 13.7958C57.3164 14.0566 56.8846 14.4803 56.526 15.067C56.1675 15.6537 55.8905 16.4359 55.6949 17.4138C55.5156 18.3916 55.426 19.5894 55.426 21.0072V29.5632C55.426 30.7202 55.483 31.7306 55.5971 32.5944C55.7275 33.4418 55.9067 34.167 56.1349 34.77C56.3794 35.3567 56.6727 35.8375 57.0149 36.2123C57.3572 36.5708 57.7483 36.8316 58.1883 36.9946C58.6283 37.1575 59.1091 37.239 59.6306 37.239C60.2662 37.239 60.8366 37.1086 61.3418 36.8479C61.847 36.5871 62.2789 36.1634 62.6374 35.5767C63.0122 34.9737 63.2893 34.1833 63.4685 33.2055C63.6641 32.2114 63.7619 30.9973 63.7619 29.5632Z" fill="white"/>
<path d="M25.2847 66.9148L18.7334 65.3748L20.8846 47.1874H41.6876V53.5921H27.6071L26.8004 60.6568C27.1915 60.4287 27.8515 60.1598 28.7804 59.8501C29.7257 59.5242 30.7687 59.3612 31.9095 59.3612C33.6695 59.3612 35.2259 59.6301 36.5785 60.1679C37.9475 60.6894 39.1046 61.4635 40.0498 62.4902C40.995 63.5006 41.7039 64.7473 42.1766 66.2304C42.6655 67.7134 42.9099 69.4083 42.9099 71.315C42.9099 72.8469 42.6573 74.33 42.1521 75.7641C41.6632 77.1819 40.9054 78.4612 39.8787 79.602C38.8683 80.7265 37.589 81.6229 36.0407 82.291C34.4925 82.9429 32.6591 83.2689 30.5405 83.2689C28.9597 83.2689 27.4196 83.0244 25.9203 82.5355C24.421 82.0466 23.0684 81.3458 21.8624 80.4332C20.6727 79.5043 19.7275 78.3879 19.0267 77.0842C18.3422 75.7641 18.0081 74.2892 18.0244 72.6595H26.3115C26.3603 73.5233 26.5641 74.2729 26.9226 74.9085C27.2811 75.5441 27.7619 76.0411 28.3649 76.3997C28.9842 76.7419 29.6931 76.913 30.4916 76.913C31.3065 76.913 31.9828 76.7501 32.5206 76.4241C33.0584 76.0982 33.4821 75.65 33.7918 75.0796C34.1014 74.5092 34.3214 73.8574 34.4518 73.124C34.5822 72.3743 34.6474 71.5839 34.6474 70.7528C34.6474 69.8727 34.5496 69.0823 34.354 68.3816C34.1747 67.6808 33.8814 67.086 33.474 66.5971C33.0665 66.0918 32.5369 65.7089 31.885 65.4481C31.2494 65.1874 30.4835 65.057 29.5871 65.057C28.3975 65.057 27.4604 65.2607 26.7759 65.6681C26.0914 66.0756 25.5944 66.4911 25.2847 66.9148Z" fill="white"/>
<path d="M72 61.7324V68.2349C72 70.7935 71.6985 73.0181 71.0955 74.9085C70.5088 76.799 69.6614 78.3635 68.5532 79.602C67.4613 80.8406 66.1575 81.7614 64.6419 82.3644C63.1263 82.9674 61.4559 83.2689 59.6306 83.2689C58.1639 83.2689 56.7949 83.0814 55.5238 82.7066C54.2526 82.3155 53.1037 81.7288 52.077 80.9465C51.0665 80.148 50.1947 79.1539 49.4613 77.9642C48.7279 76.7745 48.1657 75.373 47.7746 73.7596C47.3834 72.1299 47.1879 70.2883 47.1879 68.2349V61.7324C47.1879 59.1575 47.4812 56.933 48.0679 55.0588C48.6709 53.1684 49.5265 51.6038 50.6347 50.3653C51.7429 49.1267 53.0548 48.2059 54.5704 47.6029C56.086 47 57.7565 46.6985 59.5817 46.6985C61.0484 46.6985 62.4092 46.894 63.6641 47.2851C64.9353 47.66 66.0842 48.2467 67.1109 49.0452C68.1376 49.8275 69.0095 50.8134 69.7266 52.0031C70.4599 53.1928 71.0222 54.6025 71.4133 56.2322C71.8044 57.8456 72 59.679 72 61.7324ZM63.7619 69.2372V60.6813C63.7619 59.5405 63.6967 58.5464 63.5663 57.6989C63.4522 56.8515 63.273 56.1344 63.0285 55.5477C62.8004 54.961 62.5152 54.4884 62.1729 54.1299C61.8307 53.755 61.4396 53.4861 60.9995 53.3232C60.5758 53.1439 60.1032 53.0543 59.5817 53.0543C58.9298 53.0543 58.3431 53.1928 57.8216 53.4698C57.3164 53.7306 56.8846 54.1543 56.526 54.741C56.1675 55.3277 55.8905 56.11 55.6949 57.0878C55.5156 58.0656 55.426 59.2634 55.426 60.6813V69.2372C55.426 70.3942 55.483 71.4047 55.5971 72.2684C55.7275 73.1158 55.9067 73.8411 56.1349 74.444C56.3794 75.0307 56.6727 75.5115 57.0149 75.8863C57.3572 76.2449 57.7483 76.5056 58.1883 76.6686C58.6283 76.8316 59.1091 76.913 59.6306 76.913C60.2662 76.913 60.8366 76.7827 61.3418 76.5219C61.847 76.2612 62.2789 75.8374 62.6374 75.2507C63.0122 74.6478 63.2893 73.8574 63.4685 72.8795C63.6641 71.8854 63.7619 70.6713 63.7619 69.2372Z" fill="white"/>
<defs>
<linearGradient id="paint0_linear_9_16" x1="0" y1="45" x2="90" y2="45" gradientUnits="userSpaceOnUse">
<stop stop-color="#006CD9"/>
<stop offset="1" stop-color="#006CD9"/>
</linearGradient>
</defs>
</svg>
